<svg fill="none" height="38" viewBox="0 0 75 48" width="90" xmlns="http://www.w3.org/2000/svg"><path d="M0 41.222A2.78 2.78 0 0 0 2.778 44h24.444A2.78 2.78 0 0 0 30 41.222V34c0-8.284-6.716-15-15-15S0 25.716 0 34z" fill="#1570ef"/><path d="M0 6.778A2.78 2.78 0 0 1 2.778 4h24.444A2.78 2.78 0 0 1 30 6.778V14c0 8.284-6.716 15-15 15S0 22.284 0 14z" fill="#53b1fd" opacity=".5"/><text x="40" y="50%" fill="#000" font-size="20" font-family="Arial, sans-serif" font-weight="bold" dominant-baseline="middle">
    Xira
  </text></svg>